<?xml version="1.0" encoding="UTF-8"?>
<svg width="24px" height="18px" viewBox="0 0 24 18" version="1.1" xmlns="http://www.w3.org/2000/svg" xmlns:xlink="http://www.w3.org/1999/xlink">
    <!-- Generator: Sketch 46.2 (44496) - http://www.bohemiancoding.com/sketch -->
    <title>correct-symbol copy</title>
    <desc>Created with Sketch.</desc>
    <defs></defs>
    <g id="Page-2" stroke="none" stroke-width="1" fill="none" fill-rule="evenodd">
        <g id="Artboard-Copy-14" transform="translate(-563.000000, -1576.000000)" fill-rule="nonzero" fill="#E7BC1C">
            <g id="correct-symbol-copy" transform="translate(563.000000, 1576.000000)">
                <path d="M23.5664592,2.48476611 L21.4606908,0.424184352 C21.1719531,0.141430164 20.8207928,0 20.4080236,0 C19.9948748,0 19.6437145,0.141430164 19.3549767,0.424184352 L9.19741569,10.3787982 L4.6451315,5.90902122 C4.35606832,5.62616089 4.005125,5.48488994 3.59235579,5.48488994 C3.17931541,5.48488994 2.82837209,5.62616089 2.53930891,5.90902122 L0.433540545,7.96965605 C0.14447736,8.25246331 0,8.59598205 0,9.00010614 C0,9.40391181 0.14447736,9.74774897 0.433540545,10.0305032 L6.03860045,15.5151808 L8.14453151,17.5757626 C8.433432,17.858729 8.78448378,18 9.19741569,18 C9.61018491,18 9.96123669,17.8583576 10.2502999,17.5757626 L12.3561767,15.5151808 L23.5664592,4.54550708 C23.8552512,4.26264675 23.9999998,3.91918108 23.9999998,3.51505699 C24.0002167,3.11114518 23.8552512,2.76762644 23.5664592,2.48476611 Z" id="Shape"></path>
            </g>
        </g>
    </g>
</svg>