<?xml version="1.0" encoding="UTF-8"?>
<svg width="30px" height="27px" viewBox="0 0 30 27" version="1.1" xmlns="http://www.w3.org/2000/svg" xmlns:xlink="http://www.w3.org/1999/xlink">
    <!-- Generator: Sketch 46.2 (44496) - http://www.bohemiancoding.com/sketch -->
    <title>car-in-garage</title>
    <desc>Created with Sketch.</desc>
    <defs></defs>
    <g id="Page-2" stroke="none" stroke-width="1" fill="none" fill-rule="evenodd">
        <g id="Artboard-Copy-14" transform="translate(-602.000000, -673.000000)" fill-rule="nonzero" fill="#8E9AAF">
            <g id="car-in-garage" transform="translate(602.000000, 673.000000)">
                <path d="M23.9084439,14.5450329 C23.7929931,14.5450329 23.6744887,14.5613838 23.5563366,14.593506 L22.8877085,14.7752223 L22.0321042,12.7175493 C21.6384206,11.7705837 20.4746343,11 19.4379261,11 L10.5480976,11 C9.51138946,11 8.34760319,11.7705837 7.95391951,12.7175493 L7.09984203,14.7718593 L6.44378087,14.593506 C6.32551134,14.5613838 6.20700691,14.5450329 6.09155612,14.5450329 C5.45910188,14.5450329 5,15.0219946 5,15.679281 L5,15.7035176 C5,16.3817936 5.4943361,16.9474681 6.14569937,17.0696946 C5.7899512,17.955547 5.50396679,19.4028991 5.50396679,20.3346734 L5.50396679,24.6084267 C5.50396679,25.3756475 6.13630358,26 6.91333556,26 L7.72536688,26 C8.50239886,26 9.13473566,25.3756475 9.13473566,24.6084267 L9.13473566,23.7163123 L20.851523,23.7163123 L20.851523,24.6084267 C20.851523,25.3756475 21.4838598,26 22.2608918,26 L23.0729231,26 C23.8499551,26 24.4822919,25.3756475 24.4822919,24.6084267 L24.4822919,20.3346734 C24.4822919,19.4034789 24.1966598,17.9574024 23.841264,17.071666 C24.4990868,16.95431 25,16.3860843 25,15.7034016 L25,15.6791651 C25,15.0221106 24.5408981,14.5450329 23.9084439,14.5450329 Z M8.00594871,16.2005412 L9.36481511,12.9317356 C9.60029714,12.3652493 10.3004011,11.9018554 10.9204059,11.9018554 L19.0656179,11.9018554 C19.6856227,11.9018554 20.3857266,12.3652493 20.6212087,12.9317356 L21.9803099,16.2005412 C22.215792,16.7670274 21.9010329,17.2304213 21.2810281,17.2304213 L8.70523052,17.2304213 C8.0852257,17.2304213 7.77046668,16.7669115 8.00594871,16.2005412 Z M11.4125105,21.1082721 C11.4125105,21.4144182 11.1588241,21.6649014 10.848763,21.6649014 L8.14160046,21.6649014 C7.83153932,21.6649014 7.57785294,21.4144182 7.57785294,21.1082721 L7.57785294,19.970777 C7.57785294,19.6646308 7.83153932,19.4141477 8.14160046,19.4141477 L10.8488804,19.4141477 C11.1589416,19.4141477 11.4126279,19.6646308 11.4126279,19.970777 L11.4126279,21.1082721 L11.4125105,21.1082721 Z M22.3801009,21.1082721 C22.3801009,21.4144182 22.1264145,21.6649014 21.8163534,21.6649014 L19.1090734,21.6649014 C18.7990123,21.6649014 18.5453259,21.4144182 18.5453259,21.1082721 L18.5453259,19.970777 C18.5453259,19.6646308 18.7990123,19.4141477 19.1090734,19.4141477 L21.8163534,19.4141477 C22.1264145,19.4141477 22.3801009,19.6646308 22.3801009,19.970777 L22.3801009,21.1082721 Z" id="Shape"></path>
                <path d="M27.3106284,0 L2.6893716,0 C1.20651187,0 0,1.21407378 0,2.70649559 L0,25.4962711 C0,26.3266239 0.668996127,26.9998797 1.49409534,26.9998797 C2.31919454,26.9998797 2.98819067,26.3266239 2.98819067,25.4962711 L2.98819067,9.56968725 L27.0118093,9.56968725 L27.0118093,25.4963913 C27.0118093,26.3267442 27.6808055,27 28.5059047,27 C29.3310039,27 30,26.3267442 30,25.4963913 L30,2.70649559 C30,1.21419407 28.7936077,0 27.3106284,0 Z M2.98819067,6.11295108 L27.0118093,6.11295108 L27.0118093,6.63849238 L2.98819067,6.63849238 L2.98819067,6.11295108 Z M2.98819067,4.91006415 L2.98819067,4.48821171 L27.0118093,4.48821171 L27.0118093,4.91006415 L2.98819067,4.91006415 Z M2.98819067,8.36680032 L2.98819067,7.84137931 L27.0118093,7.84137931 L27.0118093,8.36680032 L2.98819067,8.36680032 Z" id="Shape"></path>
            </g>
        </g>
    </g>
</svg>