<?xml version="1.0" encoding="UTF-8"?>
<svg width="32px" height="19px" viewBox="0 0 32 19" version="1.1" xmlns="http://www.w3.org/2000/svg" xmlns:xlink="http://www.w3.org/1999/xlink">
    <!-- Generator: Sketch 46.2 (44496) - http://www.bohemiancoding.com/sketch -->
    <title>soccer-field</title>
    <desc>Created with Sketch.</desc>
    <defs></defs>
    <g id="Page-2" stroke="none" stroke-width="1" fill="none" fill-rule="evenodd">
        <g id="Artboard-Copy-14" transform="translate(-602.000000, -724.000000)" fill-rule="nonzero" fill="#8E9AAF">
            <g id="Group-8" transform="translate(602.000000, 627.000000)">
                <g id="soccer-field" transform="translate(0.000000, 97.000000)">
                    <path d="M31.5000481,0 L0.499951935,0 C0.223974951,0 0,0.224120518 0,0.500096371 L0,18.5000501 C0,18.776026 0.223974951,19 0.499951935,19 L31.5000481,19 C31.776025,19 32,18.776026 32,18.5000501 L32,0.500096371 C32,0.224120518 31.776025,0 31.5000481,0 Z M31.0000961,17.9999537 L1.00005035,17.9999537 L1.00005035,1.00004626 L31.0000961,1.00004626 L31.0000961,17.9999537 Z" id="Shape"></path>
                    <path d="M15.5,0 C15.2239965,0 15,0.223975761 15,0.499953742 L15,18.5000463 C15,18.7760242 15.2239965,19 15.5,19 C15.7760035,19 16,18.7760242 16,18.5000463 L16,0.500100227 C16,0.224122246 15.7760035,0 15.5,0 Z" id="Shape"></path>
                    <path d="M16.5,5 C14.0187012,5 12,7.01870117 12,9.5 C12,11.9812988 14.0187012,14 16.5,14 C18.9812988,14 21,11.9812988 21,9.5 C21,7.01870117 18.9811523,5 16.5,5 Z M16.5,12.9999512 C14.5700684,12.9999512 13.0000488,11.4299316 13.0000488,9.5 C13.0000488,7.57006836 14.5700684,6.00004883 16.5,6.00004883 C18.4299316,6.00004883 19.9999512,7.57006836 19.9999512,9.5 C19.9999512,11.4299316 18.4299316,12.9999512 16.5,12.9999512 Z" id="Shape"></path>
                    <path d="M4.50004395,5 L0.499956054,5 C0.223976797,5 0,5.20157616 0,5.45008569 L0,13.5500461 C0,13.7984238 0.223976797,14 0.499956054,14 L4.50004395,14 C4.7760232,14 5,13.7984238 5,13.5500461 L5,5.45008569 C5,5.20157616 4.7760232,5 4.50004395,5 Z M4.00008789,13.0999604 L1.00005859,13.0999604 L1.00005859,5.90003955 L4.00008789,5.90003955 L4.00008789,13.0999604 L4.00008789,13.0999604 Z" id="Shape"></path>
                    <path d="M31.5000439,5 L27.4999561,5 C27.2239768,5 27,5.20157912 27,5.44996045 L27,13.5500396 C27,13.7984209 27.2239768,14 27.4999561,14 L31.5000439,14 C31.7760232,14 32,13.7984209 32,13.5500396 L32,5.44996045 C32,5.20157912 31.7760232,5 31.5000439,5 Z M31.0000879,13.1000791 L28.0000586,13.1000791 L28.0000586,5.90005273 L31.0000879,5.90005273 L31.0000879,13.1000791 Z" id="Shape"></path>
                </g>
            </g>
        </g>
    </g>
</svg>