<?xml version="1.0" encoding="UTF-8"?>
<svg width="35px" height="25px" viewBox="0 0 35 25" version="1.1" xmlns="http://www.w3.org/2000/svg" xmlns:xlink="http://www.w3.org/1999/xlink">
    <!-- Generator: Sketch 46.2 (44496) - http://www.bohemiancoding.com/sketch -->
    <title>bed (1)</title>
    <desc>Created with Sketch.</desc>
    <defs></defs>
    <g id="Page-2" stroke="none" stroke-width="1" fill="none" fill-rule="evenodd">
        <g id="Artboard-Copy-14" transform="translate(-602.000000, -624.000000)" fill-rule="nonzero" fill="#8C99AC">
            <g id="bed-(1)" transform="translate(602.000000, 624.000000)">
                <path d="M33.1937354,10.7790052 L33.1937354,2.1455131 C33.1937354,0.962490006 32.2320026,0 31.0499101,0 L3.95008989,0 C2.76799745,0 1.80626461,0.962490006 1.80626461,2.1455131 L1.80626461,10.7790953 C0.785031081,10.9345855 0,11.8191503 0,12.8839791 L0,18.2277626 C0,18.6009031 0.302274323,18.9034154 0.675121329,18.9034154 L1.39840131,18.9034154 L1.39840131,22.2366361 C1.39840131,22.6097767 1.70067564,22.912289 2.07352264,22.912289 L3.29225166,22.912289 L3.29225166,24.213236 C3.29225166,24.5863766 3.59452599,24.8888889 3.96737299,24.8888889 C4.34022,24.8888889 4.64249432,24.5863766 4.64249432,24.213236 L4.64249432,22.912289 L30.3575957,22.912289 L30.3575957,24.213236 C30.3575957,24.5863766 30.65978,24.8888889 31.032717,24.8888889 C31.405654,24.8888889 31.7078384,24.5863766 31.7078384,24.213236 L31.7078384,22.912289 L32.9265674,22.912289 C33.2995044,22.912289 33.6016887,22.6097767 33.6016887,22.2366361 L33.6016887,18.9034154 L34.3248787,18.9034154 C34.6978157,18.9034154 35,18.6009031 35,18.2277626 L35,12.8839791 C35,11.8191503 34.2149689,10.9344955 33.1937354,10.7790052 Z M3.15641725,2.1455131 C3.15641725,1.70759997 3.51243123,1.3513057 3.94999987,1.3513057 L31.0498201,1.3513057 C31.4873887,1.3513057 31.8434027,1.70759997 31.8434027,2.1455131 L31.8434027,10.7547718 L29.4728267,10.7547718 C29.9445115,10.2465908 30.4242977,9.71219441 30.921187,9.14041192 C31.1421767,8.88609619 31.1420867,8.50773059 30.921097,8.25350495 C28.967926,6.00691418 27.3326021,4.37030281 25.0884087,2.41622468 C24.8343831,2.19497089 24.4562251,2.19497089 24.2021095,2.41622468 C21.9578261,4.37039289 20.3225923,6.00700427 18.3695113,8.25350495 C18.1485215,8.50773059 18.1484315,8.88609619 18.3694212,9.14041192 C18.8664006,9.71228449 19.3460968,10.2466809 19.8177815,10.7547718 L15.1816784,10.7547718 C15.6533631,10.2465908 16.1332394,9.71219441 16.6301287,9.14041192 C16.8511184,8.88609619 16.8511184,8.50773059 16.6300387,8.25350495 C14.6771377,6.00727453 13.0418138,4.37066315 10.7973504,2.41622468 C10.5433248,2.19497089 10.1651668,2.19497089 9.91105116,2.41622468 C7.6665878,4.37066315 6.0312639,6.00727453 4.07836294,8.25350495 C3.85728321,8.50773059 3.85728321,8.88609619 4.07827292,9.14041192 C4.57525224,9.71219441 5.05503846,10.2465908 5.52672323,10.7547718 L3.15641725,10.7547718 L3.15641725,2.1455131 Z M21.6806663,10.7547718 C21.0594647,10.1165952 20.4319619,9.43850996 19.7768242,8.69700348 C21.3907242,6.86940757 22.819641,5.43936579 24.6453491,3.82455548 C26.4710572,5.4392757 27.899974,6.86940757 29.5139641,8.69700348 C28.8589164,9.43850996 28.2313236,10.1165952 27.6101219,10.7547718 L21.6806663,10.7547718 Z M7.38969803,10.7547718 C6.7684964,10.1165051 6.14090361,9.43850996 5.48576587,8.69700348 C7.09939586,6.86976791 8.52858271,5.43945587 10.3543808,3.82455548 C12.180179,5.43945587 13.6093658,6.86976791 15.2229958,8.69700348 C14.5679481,9.43850996 13.9403553,10.1165051 13.3190636,10.7547718 L7.38969803,10.7547718 Z M32.251446,21.5609833 L2.74864397,21.5609833 L2.74864397,18.9034154 L32.251446,18.9034154 L32.251446,21.5609833 Z M33.6497573,17.5521097 L1.35024266,17.5521097 L1.35024266,12.8839791 C1.35024266,12.4550747 1.69896533,12.1060775 2.12762236,12.1060775 L32.8723776,12.1060775 C33.3010347,12.1060775 33.6497573,12.4550747 33.6497573,12.8839791 L33.6497573,17.5521097 Z" id="Shape"></path>
            </g>
        </g>
    </g>
</svg>