<?xml version="1.0" encoding="UTF-8"?>
<svg width="40px" height="44px" viewBox="0 0 40 44" version="1.1" xmlns="http://www.w3.org/2000/svg" xmlns:xlink="http://www.w3.org/1999/xlink">
    <!-- Generator: Sketch 46.2 (44496) - http://www.bohemiancoding.com/sketch -->
    <title>calendar (2)</title>
    <desc>Created with Sketch.</desc>
    <defs>
        <filter x="-5.3%" y="-2.4%" width="113.2%" height="109.5%" filterUnits="objectBoundingBox" id="filter-1">
            <feOffset dx="0" dy="1" in="SourceAlpha" result="shadowOffsetOuter1"></feOffset>
            <feGaussianBlur stdDeviation="0.5" in="shadowOffsetOuter1" result="shadowBlurOuter1"></feGaussianBlur>
            <feColorMatrix values="0 0 0 0 1   0 0 0 0 0.811764706   0 0 0 0 0.11372549  0 0 0 1 0" type="matrix" in="shadowBlurOuter1" result="shadowMatrixOuter1"></feColorMatrix>
            <feMerge>
                <feMergeNode in="shadowMatrixOuter1"></feMergeNode>
                <feMergeNode in="SourceGraphic"></feMergeNode>
            </feMerge>
        </filter>
    </defs>
    <g id="Page-2" stroke="none" stroke-width="1" fill="none" fill-rule="evenodd">
        <g id="Artboard-Copy-15" transform="translate(-962.000000, -866.000000)" fill-rule="nonzero" fill="#FFCF1D">
            <g id="Group-19" transform="translate(854.000000, 866.000000)">
                <g id="calendar-(2)" filter="url(#filter-1)" transform="translate(109.000000, 0.000000)">
                    <path d="M25.7738576,3.53488372 L13.1098633,3.53488372 C12.7026686,3.53488372 12.372093,3.93072649 12.372093,4.41860465 C12.372093,4.90648281 12.7025605,5.30232558 13.1098633,5.30232558 L25.7738576,5.30232558 C26.1814846,5.30232558 26.5116279,4.90648281 26.5116279,4.41860465 C26.5116279,3.93072649 26.1810523,3.53488372 25.7738576,3.53488372 Z" id="Shape"></path>
                    <path d="M37.2691958,3.53488372 L28.8650007,3.53488372 C28.4616507,3.53488372 28.1341965,3.85157031 28.1341965,4.24188808 C28.1341965,4.63220585 28.4615437,4.94889244 28.8650007,4.94889244 L36.5383915,4.94889244 L36.5383915,12.7255262 L1.46160845,12.7255262 L1.46160845,4.94889244 L9.13467817,4.94889244 C9.53802815,4.94889244 9.8654824,4.63220585 9.8654824,4.24188808 C9.8654824,3.85157031 9.5381352,3.53488372 9.13467817,3.53488372 L0.730804227,3.53488372 C0.327454245,3.53488372 0,3.85157031 0,4.24188808 L0,13.4325305 C0,13.8227447 0.327347199,14.1395349 0.730804227,14.1395349 L37.2691958,14.1395349 C37.6725458,14.1395349 38,13.8228483 38,13.4325305 L38,4.24188808 C38,3.85167387 37.6726528,3.53488372 37.2691958,3.53488372 Z" id="Shape"></path>
                    <path d="M37.2691958,13.255814 L0.730804227,13.255814 C0.327454245,13.255814 0,13.5891707 0,14.0000344 L0,37.868287 C0,39.8902295 1.61500562,41.5348837 3.60049805,41.5348837 L34.399502,41.5348837 C36.3849944,41.5348837 38,39.8902295 38,37.868287 L38,14.0000344 C38,13.5891707 37.6726528,13.255814 37.2691958,13.255814 Z M36.5388197,37.868178 C36.5388197,39.0692651 35.5793649,40.0464428 34.3998231,40.0464428 L3.60049805,40.0464428 C2.42106331,40.0464428 1.46150141,39.0693741 1.46150141,37.868178 L1.46150141,14.7441459 L36.5388197,14.7441459 L36.5388197,37.868178 Z" id="Shape"></path>
                    <path d="M10.6046512,0 C9.62988281,0 8.8372093,0.990841888 8.8372093,2.20930233 L8.8372093,6.62790698 C8.8372093,7.84636741 9.62988281,8.8372093 10.6046512,8.8372093 C11.5794195,8.8372093 12.372093,7.84636741 12.372093,6.62790698 L12.372093,2.20930233 C12.372093,0.990841888 11.5794195,0 10.6046512,0 Z M11.1938272,6.62790698 C11.1938272,7.03406046 10.9295739,7.36437704 10.6046512,7.36437704 C10.2797284,7.36437704 10.0154751,7.03406046 10.0154751,6.62790698 L10.0154751,2.20930233 C10.0154751,1.80314885 10.2797284,1.47283226 10.6046512,1.47283226 C10.9295739,1.47283226 11.1938272,1.80314885 11.1938272,2.20930233 L11.1938272,6.62790698 Z" id="Shape"></path>
                    <path d="M26.5116279,0 C25.5368596,0 24.744186,0.990841888 24.744186,2.20930233 L24.744186,6.62790698 C24.744186,7.84636741 25.5368596,8.8372093 26.5116279,8.8372093 C27.4863963,8.8372093 28.2790698,7.84636741 28.2790698,6.62790698 L28.2790698,2.20930233 C28.2790698,0.990841888 27.4863963,0 26.5116279,0 Z M27.100804,6.62790698 C27.100804,7.03406046 26.8365507,7.36437704 26.5116279,7.36437704 C26.1867051,7.36437704 25.9224519,7.03406046 25.9224519,6.62790698 L25.9224519,2.20930233 C25.9224519,1.80314885 26.1867051,1.47283226 26.5116279,1.47283226 C26.8365507,1.47283226 27.100804,1.80314885 27.100804,2.20930233 L27.100804,6.62790698 Z" id="Shape"></path>
                    <path d="M29.1337004,19.5306905 C29.0379722,18.9481176 28.7183671,18.4369639 28.231621,18.0908725 C27.2277893,17.3787312 25.8239584,17.6025902 25.1009586,18.5890802 L16.6872831,30.0642544 L13.2691076,27.6596311 C12.7819234,27.3160211 12.1886057,27.1805189 11.5957262,27.2773986 C11.0050373,27.374602 10.4879517,27.6924278 10.1392119,28.1726189 C9.79112932,28.6528099 9.65356112,29.2379719 9.751918,29.8201132 C9.85060347,30.4022545 10.1732754,30.9115742 10.6611168,31.2547528 L15.8951706,34.9371524 C16.2776453,35.2063226 16.7278087,35.3488372 17.1973588,35.3488372 C17.9170727,35.3488372 18.5971371,35.0064138 19.0169611,34.4326875 L28.7373155,21.1762429 C29.0884649,20.6979938 29.2289904,20.1135869 29.1337004,19.5306905 Z M27.524941,20.3139273 L17.804258,33.5710191 C17.5717283,33.888845 17.0916635,33.9691106 16.7638437,33.7388864 L11.5297899,30.0564868 C11.3671395,29.9419141 11.2599108,29.7722128 11.2269427,29.5781297 C11.1939745,29.3840467 11.239648,29.1888848 11.3559676,29.0291088 C11.4726158,28.8685776 11.6449046,28.7625278 11.841947,28.7300548 C11.8834584,28.7234738 11.9252984,28.7201294 11.9664813,28.7201294 C12.1209169,28.7201294 12.2707523,28.7672747 12.3994487,28.8574656 L16.4233186,31.6885537 C16.757491,31.9238484 17.2229885,31.8487613 17.4637329,31.5202549 L26.3130046,19.4513958 C26.5545156,19.1218106 27.0226418,19.0485575 27.3568143,19.2853626 C27.5190264,19.4010141 27.625598,19.5714706 27.6573614,19.7655536 C27.6886866,19.9596367 27.6419178,20.1541513 27.524941,20.3139273 Z" id="Shape"></path>
                </g>
            </g>
        </g>
    </g>
</svg>