<?xml version="1.0" encoding="UTF-8"?>
<svg width="121px" height="93px" viewBox="0 0 121 93" version="1.1" xmlns="http://www.w3.org/2000/svg" xmlns:xlink="http://www.w3.org/1999/xlink">
    <!-- Generator: Sketch 46.2 (44496) - http://www.bohemiancoding.com/sketch -->
    <title>Group 13</title>
    <desc>Created with Sketch.</desc>
    <defs></defs>
    <g id="Page-2" stroke="none" stroke-width="1" fill="none" fill-rule="evenodd">
        <g id="Artboard-Copy-15" transform="translate(-256.000000, -2566.000000)" fill-rule="nonzero" fill="#A9A9A9">
            <g id="Group-28" transform="translate(256.000000, 2566.000000)">
                <g id="Group-13">
                    <rect id="Rectangle-path" x="10" y="0" width="17" height="5"></rect>
                    <rect id="Rectangle-path" x="10" y="10" width="39" height="5"></rect>
                    <rect id="Rectangle-path" x="73" y="69" width="17" height="5"></rect>
                    <rect id="Rectangle-path" x="73" y="78" width="39" height="5"></rect>
                    <path d="M118.576467,24 L106.4588,24 L106.4588,28.8510638 L112.726057,28.8510638 L92.8530837,48.7404255 C92.6592011,48.4654309 92.4462331,48.204383 92.2156945,47.9594043 C89.5231489,45.2785851 85.2198625,45.1303245 82.3494902,47.6198298 L69.9894702,37.3113191 C69.3163338,33.349516 65.5616747,30.6838564 61.603136,31.3572447 C57.6445972,32.0309362 54.981134,35.7886915 55.6539675,39.7504947 C55.9081356,41.2467447 56.6233808,42.6259628 57.6997326,43.6953191 C57.7603209,43.7559574 57.8330269,43.7971915 57.8960388,43.8578298 L54.6703159,65.4086809 C51.74087,64.770766 48.7214504,66.002633 47.0725389,68.5085106 L30.7330771,55.9685106 C32.3423032,52.2865532 30.6643093,47.9960904 26.9853857,46.3858404 C23.3064621,44.7755904 19.0195345,46.4546649 17.4106113,50.1366223 C16.4896686,52.2438032 16.6184189,54.6626649 17.7574795,56.6597872 L5,78.5744681 L9.18786562,81 L21.4824503,59.8978723 C23.4130975,60.6513032 25.5773128,60.5175957 27.4007187,59.531617 L45.9964901,73.8058723 C46.6905294,77.7640372 50.4594267,80.4096862 54.4143302,79.7150745 C58.3692337,79.0204628 61.0127027,75.2484574 60.3186633,71.2902926 C60.1356865,70.2470106 59.7273212,69.2561809 59.1223466,68.387234 L62.5152933,45.7837021 C62.6243523,45.7837021 62.7334113,45.815234 62.8448939,45.815234 C65.2423742,45.8361543 67.4908073,44.6518883 68.8310212,42.6620426 L79.9259569,51.9154468 C79.2146498,55.8596649 81.8326717,59.6343989 85.7739428,60.3462926 C89.714911,61.0581862 93.4865348,58.4380053 94.1978418,54.4937872 C94.2142007,54.4028298 94.2290448,54.311266 94.2417683,54.2197021 L116.152933,32.280766 L116.152933,38.5531915 L121,38.5531915 L121,26.4255319 C121,25.0860319 119.914863,24 118.576467,24 Z M25.7727102,54.8209309 C25.7724072,54.821234 25.7724072,54.821234 25.7721043,54.8215372 C24.8257145,55.7684043 23.2916179,55.7684043 22.3452281,54.8215372 C21.3985354,53.874367 21.3985354,52.3387021 22.3446223,51.3912287 C23.291012,50.4437553 24.8254116,50.4437553 25.7721043,51.3906223 C26.718797,52.3377926 26.718797,53.8734574 25.7727102,54.8209309 Z M54.8545044,74.2254894 C53.9081147,75.1729628 52.3737151,75.1729628 51.4270224,74.2260957 C50.4803297,73.2789255 50.4803297,71.7432606 51.4264165,70.7957872 C52.3728063,69.8483138 53.9072058,69.8483138 54.8538985,70.7951809 C54.8542015,70.795484 54.8542015,70.795484 54.8545044,70.7957872 C55.8005913,71.7429574 55.8005913,73.2783191 54.8545044,74.2254894 Z M64.5486378,40.2680426 C63.602248,41.215516 62.0678485,41.215516 61.1211558,40.2686489 C60.1744631,39.3214787 60.1744631,37.7858138 61.1205499,36.8383404 C62.0669397,35.890867 63.6013392,35.890867 64.5480319,36.837734 C64.5483349,36.8380372 64.5483349,36.8380372 64.5486378,36.8383404 C65.4947246,37.7855106 65.4947246,39.3208723 64.5486378,40.2680426 Z M88.7839713,54.821234 C87.8375815,55.7687074 86.3031819,55.7687074 85.3564892,54.8218404 C84.4097965,53.8746702 84.4097965,52.3390053 85.3558833,51.3915319 C86.3022731,50.4440585 87.8366727,50.4440585 88.7833654,51.3909255 C88.7836683,51.3912287 88.7836683,51.3912287 88.7839713,51.3915319 C89.7300581,52.3387021 89.7300581,53.8740638 88.7839713,54.821234 Z" id="Shape"></path>
                    <rect id="Rectangle-path" x="0" y="88" width="5" height="5"></rect>
                    <rect id="Rectangle-path" x="10" y="88" width="5" height="5"></rect>
                    <rect id="Rectangle-path" x="19" y="88" width="5" height="5"></rect>
                </g>
            </g>
        </g>
    </g>
</svg>