<?xml version="1.0" encoding="UTF-8"?>
<svg width="46px" height="34px" viewBox="0 0 46 34" version="1.1" xmlns="http://www.w3.org/2000/svg" xmlns:xlink="http://www.w3.org/1999/xlink">
    <!-- Generator: Sketch 46.2 (44496) - http://www.bohemiancoding.com/sketch -->
    <title>email-filled-closed-envelope</title>
    <desc>Created with Sketch.</desc>
    <defs></defs>
    <g id="Page-2" stroke="none" stroke-width="1" fill="none" fill-rule="evenodd">
        <g id="Artboard-Copy-15" transform="translate(-762.000000, -2881.000000)" fill-rule="nonzero" fill="#FFFFFF">
            <g id="Group-27" transform="translate(268.000000, 2875.000000)">
                <g id="Group-26" transform="translate(494.000000, 0.000000)">
                    <g id="email-filled-closed-envelope" transform="translate(0.000000, 6.000000)">
                        <g id="mail">
                            <g id="Group" transform="translate(7.325721, 16.174006)">
                                <path d="M29.4625853,9.57207079 C29.2823726,9.57207079 29.1021599,9.5059044 28.961506,9.37210126 L20.5310661,1.43507544 C20.2365721,1.15864697 20.2219207,0.692541527 20.4988329,0.396998328 C20.7757452,0.0985143999 21.2372656,0.0852811223 21.5346899,0.364650316 L29.9651298,8.30167614 C30.2596238,8.57810461 30.2742752,9.04421005 29.997363,9.33975325 C29.8523137,9.49414149 29.6589147,9.57207079 29.4625853,9.57207079 Z" id="Shape"></path>
                                <path d="M1.3215601,9.57207079 C1.12669591,9.57207079 0.931831731,9.49414149 0.786782452,9.33975325 C0.509870192,9.04421005 0.524521635,8.57810461 0.819015625,8.30167614 L9.25238582,0.364650316 C9.54834495,0.0882218506 10.0127957,0.099984764 10.2882428,0.396998328 C10.565155,0.692541527 10.5505036,1.15864697 10.2560096,1.43507544 L1.82263942,9.37210126 C1.68198558,9.5059044 1.50177284,9.57207079 1.3215601,9.57207079 Z" id="Shape"></path>
                            </g>
                            <path d="M41.7741923,33.1258345 L3.66286058,33.1258345 C1.64389183,33.1258345 0,31.4775563 0,29.4499241 L0,4.38462598 C0,2.35699378 1.64389183,0.708715533 3.66286058,0.708715533 L41.7741923,0.708715533 C43.7931611,0.708715533 45.4370529,2.35699378 45.4370529,4.38462598 L45.4370529,29.4499241 C45.4370529,31.4775563 43.7931611,33.1258345 41.7741923,33.1258345 Z M3.66286058,2.17907971 C2.4511863,2.17907971 1.46514423,3.1686348 1.46514423,4.38462598 L1.46514423,29.4499241 C1.46514423,30.6659153 2.4511863,31.6554704 3.66286058,31.6554704 L41.7741923,31.6554704 C42.9858666,31.6554704 43.9719087,30.6659153 43.9719087,29.4499241 L43.9719087,4.38462598 C43.9719087,3.1686348 42.9858666,2.17907971 41.7741923,2.17907971 L3.66286058,2.17907971 Z" id="Shape"></path>
                            <path d="M22.7185264,20.611565 C21.7442055,20.611565 20.7698846,20.2866145 20.0285216,19.6381839 L1.21606971,3.1686348 C0.911319712,2.90249889 0.879086538,2.43786381 1.14427764,2.13055769 C1.41239904,1.82472194 1.87391947,1.79678502 2.17866947,2.05998021 L20.9911214,18.528059 C21.9273486,19.3470518 23.5097043,19.3470518 24.4444663,18.528059 L43.233476,2.08644677 C43.5367608,1.82031085 43.9982812,1.84971813 44.2678678,2.15702425 C44.5330589,2.46433036 44.5022909,2.92749508 44.1975409,3.19510136 L25.4085312,19.6367136 C24.6657031,20.2866145 23.6928474,20.611565 22.7185264,20.611565 Z" id="Shape"></path>
                        </g>
                    </g>
                </g>
            </g>
        </g>
    </g>
</svg>