<?xml version="1.0" encoding="UTF-8"?>
<svg width="42px" height="39px" viewBox="0 0 42 39" version="1.1" xmlns="http://www.w3.org/2000/svg" xmlns:xlink="http://www.w3.org/1999/xlink">
    <!-- Generator: Sketch 46.2 (44496) - http://www.bohemiancoding.com/sketch -->
    <title>like</title>
    <desc>Created with Sketch.</desc>
    <defs>
        <filter x="-5.0%" y="-2.7%" width="112.5%" height="110.8%" filterUnits="objectBoundingBox" id="filter-1">
            <feOffset dx="0" dy="1" in="SourceAlpha" result="shadowOffsetOuter1"></feOffset>
            <feGaussianBlur stdDeviation="0.5" in="shadowOffsetOuter1" result="shadowBlurOuter1"></feGaussianBlur>
            <feColorMatrix values="0 0 0 0 1   0 0 0 0 0.811764706   0 0 0 0 0.11372549  0 0 0 1 0" type="matrix" in="shadowBlurOuter1" result="shadowMatrixOuter1"></feColorMatrix>
            <feMerge>
                <feMergeNode in="shadowMatrixOuter1"></feMergeNode>
                <feMergeNode in="SourceGraphic"></feMergeNode>
            </feMerge>
        </filter>
    </defs>
    <g id="Page-2" stroke="none" stroke-width="1" fill="none" fill-rule="evenodd">
        <g id="Artboard-Copy-15" transform="translate(-279.000000, -871.000000)" fill-rule="nonzero" fill="#FFCF1D">
            <g id="Group-21" transform="translate(175.000000, 871.000000)">
                <g id="like" filter="url(#filter-1)" transform="translate(105.000000, 0.000000)">
                    <path d="M39.9338835,10.8904208 C39.3500004,4.57947632 34.801251,0.000755439841 29.108583,0.000755439841 C25.3160353,0.000755439841 21.8435079,2.00493734 19.8895381,5.21706754 C17.9532617,1.96338815 14.623051,0 10.8912764,0 C5.19937771,0 0.649859041,4.57872088 0.0667452178,10.8896653 C0.0205884507,11.1684226 -0.168654294,12.6354868 0.406766735,15.0279648 C1.23604998,18.478814 3.15155581,21.6176665 5.9448095,24.1030636 L19.8803067,36.5217391 L34.0550499,24.103819 C36.8483036,21.6176665 38.7638094,18.4795694 39.5930927,15.0279648 C40.1685137,12.6362422 39.979271,11.1691781 39.9338835,10.8904208 Z M38.0953056,14.6819733 C37.3383346,17.8336683 35.5836082,20.7050952 33.025754,22.98048 L19.8895381,34.489606 L6.97872108,22.9835017 C4.41625123,20.7035843 2.66229408,17.8329129 1.90455383,14.6812179 C1.35990397,12.4171647 1.58376429,11.138205 1.58453357,11.1298952 L1.59607277,11.0535958 C2.09610441,5.52453156 6.0048133,1.51087968 10.8912764,1.51087968 C14.4968892,1.51087968 17.6709362,3.68654643 19.1771853,7.18801009 L19.8856917,8.83713526 L20.5941981,7.18801009 C22.0765996,3.74018265 25.4183495,1.51163512 29.1093523,1.51163512 C33.9950461,1.51163512 37.9045243,5.525287 38.4145566,11.126118 C38.4160951,11.138205 38.6399554,12.4179201 38.0953056,14.6819733 Z" id="Shape"></path>
                    <path d="M12.5757576,4.15019763 C8.39848485,4.15019763 5,7.53524973 5,11.6960115 C5,12.113295 5.33863636,12.4505929 5.75757576,12.4505929 C6.17651515,12.4505929 6.51515152,12.113295 6.51515152,11.6960115 C6.51515152,8.367553 9.23409091,5.6593604 12.5757576,5.6593604 C12.994697,5.6593604 13.3333333,5.32206252 13.3333333,4.90477902 C13.3333333,4.48749551 12.9939394,4.15019763 12.5757576,4.15019763 Z" id="Shape"></path>
                </g>
            </g>
        </g>
    </g>
</svg>