<?xml version="1.0" encoding="UTF-8"?>
<svg width="50px" height="50px" viewBox="0 0 50 50" version="1.1" xmlns="http://www.w3.org/2000/svg" xmlns:xlink="http://www.w3.org/1999/xlink">
    <!-- Generator: Sketch 46.2 (44496) - http://www.bohemiancoding.com/sketch -->
    <title>building</title>
    <desc>Created with Sketch.</desc>
    <defs>
        <filter x="-4.2%" y="-2.1%" width="110.4%" height="108.3%" filterUnits="objectBoundingBox" id="filter-1">
            <feOffset dx="0" dy="1" in="SourceAlpha" result="shadowOffsetOuter1"></feOffset>
            <feGaussianBlur stdDeviation="0.5" in="shadowOffsetOuter1" result="shadowBlurOuter1"></feGaussianBlur>
            <feColorMatrix values="0 0 0 0 1   0 0 0 0 0.811764706   0 0 0 0 0.11372549  0 0 0 1 0" type="matrix" in="shadowBlurOuter1" result="shadowMatrixOuter1"></feColorMatrix>
            <feMerge>
                <feMergeNode in="shadowMatrixOuter1"></feMergeNode>
                <feMergeNode in="SourceGraphic"></feMergeNode>
            </feMerge>
        </filter>
    </defs>
    <g id="Page-2" stroke="none" stroke-width="1" fill="none" fill-rule="evenodd">
        <g id="Artboard-Copy-15" transform="translate(-616.000000, -860.000000)" fill-rule="nonzero" fill="#FFCF1D">
            <g id="building" filter="url(#filter-1)" transform="translate(617.000000, 860.000000)">
                <path d="M33.9586488,44.6896552 L11.5585926,44.6896552 C11.1170283,44.6896552 10.7586207,45.0604239 10.7586207,45.5172171 L10.7586207,47.172438 C10.7586207,47.6292313 11.1170283,48 11.5585926,48 C12.0001568,48 12.3585644,47.6292313 12.3585644,47.172438 L12.3585644,46.3448761 L33.9586488,46.3448761 C34.400213,46.3448761 34.7586207,45.9741074 34.7586207,45.5173141 C34.7586207,45.0605209 34.4003068,44.6896552 33.9586488,44.6896552 Z" id="Shape"></path>
                <path d="M18.2068966,19.1379522 C18.2068966,19.5376463 18.5776616,19.862069 19.0344504,19.862069 L22.3448599,19.862069 C22.8016487,19.862069 23.1724138,19.5376463 23.1724138,19.1379522 L23.1724138,14.7930822 C23.1724138,14.3933881 22.8016487,14.0689655 22.3448599,14.0689655 L19.0345474,14.0689655 C18.5777586,14.0689655 18.2069935,14.3933881 18.2069935,14.7930822 L18.2069935,19.1379522 L18.2068966,19.1379522 Z M19.8621013,15.5172838 L21.517306,15.5172838 L21.517306,18.4138355 L19.8621013,18.4138355 L19.8621013,15.5172838 Z" id="Shape"></path>
                <path d="M9.99017351,9.93103448 L0.768447176,9.93103448 C0.344283787,9.93103448 0,10.3018002 0,10.7585898 L0,27.3103757 C0,27.7671653 0.344283787,28.137931 0.768447176,28.137931 C1.19261057,28.137931 1.53689435,27.7671653 1.53689435,27.3103757 L1.53689435,11.5862422 L9.99017351,11.5862422 C10.4143369,11.5862422 10.7586207,11.2154764 10.7586207,10.7586868 C10.7586207,10.3018972 10.414427,9.93103448 9.99017351,9.93103448 Z" id="Shape"></path>
                <path d="M38.0689655,39.0000212 C38.0689655,39.3997153 38.4397378,39.7241379 38.8965356,39.7241379 L42.2069127,39.7241379 C42.6637104,39.7241379 43.0344828,39.3997153 43.0344828,39.0000212 L43.0344828,34.6551512 C43.0344828,34.2554571 42.6637104,33.9310345 42.2069127,33.9310345 L38.8965356,33.9310345 C38.4397378,33.9310345 38.0689655,34.2554571 38.0689655,34.6551512 L38.0689655,39.0000212 Z M39.7242026,35.3793528 L41.3794397,35.3793528 L41.3794397,38.2759045 L39.7242026,38.2759045 L39.7242026,35.3793528 Z" id="Shape"></path>
                <path d="M4.13802795,28.9655172 C0.0471343563,28.9655172 0,39.1727586 0,39.2758311 C0,41.1911759 1.42431102,42.7924704 3.31036417,43.1612635 L3.31036417,47.2069275 C3.31036417,47.6446835 3.68113504,48 4.13793096,48 C4.59472688,48 4.96549776,47.6446835 4.96549776,47.2069275 L4.96549776,43.1612635 C6.8515509,42.7924704 8.27586192,41.1911759 8.27586192,39.2758311 C8.27595891,39.1727586 8.22882455,28.9655172 4.13802795,28.9655172 Z M4.13802795,41.6551414 C2.76919193,41.6551414 1.65523058,40.5876118 1.65523058,39.2758311 C1.65523058,35.3245959 2.762597,30.5516622 4.13802795,30.5516622 C5.5134589,30.5516622 6.62082532,35.3245959 6.62082532,39.2758311 C6.62082532,40.5876118 5.50686397,41.6551414 4.13802795,41.6551414 Z" id="Shape"></path>
                <path d="M9.10356141,24 L5.79308728,24 C5.33628957,24 4.96551724,24.3244179 4.96551724,24.7241061 L4.96551724,26.1724032 C4.96551724,26.5720914 5.33628957,26.8965093 5.79308728,26.8965093 C6.24988499,26.8965093 6.62065732,26.5720914 6.62065732,26.1724032 L6.62065732,25.4482971 L8.27589438,25.4482971 L8.27589438,29.0689973 C8.27589438,29.4686856 8.64666671,29.7931034 9.10346442,29.7931034 C9.56026214,29.7931034 9.93103446,29.4686856 9.93103446,29.0689973 L9.93103446,24.724191 C9.93113145,24.3244179 9.56035912,24 9.10356141,24 Z" id="Shape"></path>
                <path d="M38.8965356,19.862069 L42.2069127,19.862069 C42.6637104,19.862069 43.0344828,19.5376463 43.0344828,19.1379522 L43.0344828,14.7930822 C43.0344828,14.3933881 42.6637104,14.0689655 42.2069127,14.0689655 L38.8965356,14.0689655 C38.4397378,14.0689655 38.0689655,14.3933881 38.0689655,14.7930822 L38.0689655,19.1379522 C38.0689655,19.5376463 38.4397378,19.862069 38.8965356,19.862069 Z M39.7242026,15.5171989 L41.3794397,15.5171989 L41.3794397,18.4137507 L39.7242026,18.4137507 L39.7242026,15.5171989 Z" id="Shape"></path>
                <path d="M9.10356141,14.0689655 L5.79308728,14.0689655 C5.33628957,14.0689655 4.96551724,14.3933881 4.96551724,14.7930822 L4.96551724,19.1379522 C4.96551724,19.5376463 5.33628957,19.862069 5.79308728,19.862069 L9.10346442,19.862069 C9.56026214,19.862069 9.93103446,19.5376463 9.93103446,19.1379522 L9.93103446,14.7930822 C9.93113145,14.3933881 9.56035912,14.0689655 9.10356141,14.0689655 Z M8.27589438,18.4138355 L6.62075431,18.4138355 L6.62075431,15.5172838 L8.27599137,15.5172838 L8.27599137,18.4138355 L8.27589438,18.4138355 Z" id="Shape"></path>
                <path d="M25.6551724,19.1379522 C25.6551724,19.5376463 26.0259447,19.862069 26.4827425,19.862069 L29.7931196,19.862069 C30.2499173,19.862069 30.6206897,19.5376463 30.6206897,19.1379522 L30.6206897,14.7930822 C30.6206897,14.3933881 30.2499173,14.0689655 29.7931196,14.0689655 L26.4827425,14.0689655 C26.0259447,14.0689655 25.6551724,14.3933881 25.6551724,14.7930822 L25.6551724,19.1379522 Z M27.3103125,15.5172838 L28.9655496,15.5172838 L28.9655496,18.4138355 L27.3103125,18.4138355 L27.3103125,15.5172838 Z" id="Shape"></path>
                <path d="M47.2315528,9.93103448 L38.0098265,9.93103448 C37.5856631,9.93103448 37.2413793,10.286351 37.2413793,10.724107 C37.2413793,11.1618629 37.5856631,11.5171794 38.0098265,11.5171794 L46.4631056,11.5171794 L46.4631056,43.387298 C46.2218458,43.2984456 45.9659069,43.2413793 45.6946585,43.2413793 C45.5617359,43.2413793 45.4295338,43.2532759 45.2996732,43.277069 C44.7694239,42.2912352 43.7604374,41.6551414 42.6207797,41.6551414 C41.481122,41.6551414 40.4721355,42.2912352 39.9418862,43.277069 C39.8120256,43.2532759 39.6798235,43.2413793 39.546901,43.2413793 C38.2758517,43.2413793 37.2414694,44.3089089 37.2414694,45.6206897 C37.2414694,46.9324704 38.2758517,48 39.546901,48 L45.6945684,48 C46.9656177,48 48,46.9324704 48,45.6206897 L48,10.724107 C48,10.286351 47.6557162,9.93103448 47.2315528,9.93103448 Z M45.6945684,46.4137621 L39.5467208,46.4137621 C39.1232779,46.4137621 38.7782737,46.057702 38.7782737,45.6206897 C38.7782737,45.1836773 39.1232779,44.8276172 39.5467208,44.8276172 C39.6942324,44.8276172 39.8340893,44.8712069 39.9632295,44.9568992 C40.1737802,45.0964978 40.4366535,45.121871 40.6687276,45.0251185 C40.9008017,44.9283661 41.0721781,44.7205482 41.1282829,44.4691406 C41.2904736,43.746611 41.9044749,43.2413793 42.6206897,43.2413793 C43.3369044,43.2413793 43.9509057,43.746611 44.1130964,44.4691406 C44.1692012,44.7205482 44.3405776,44.9283661 44.5726517,45.0251185 C44.8040054,45.121871 45.067509,45.0964978 45.2781498,44.9568992 C45.7784105,44.6237958 46.4631056,45.0314386 46.4631056,45.6206897 C46.4630156,46.057702 46.1180114,46.4137621 45.6945684,46.4137621 Z" id="Shape"></path>
                <path d="M26.4827425,10.7586207 L29.7931196,10.7586207 C30.2499173,10.7586207 30.6206897,10.4341981 30.6206897,10.034504 L30.6206897,5.68963396 C30.6206897,5.28993986 30.2499173,4.96551724 29.7931196,4.96551724 L26.4827425,4.96551724 C26.0259447,4.96551724 25.6551724,5.28993986 25.6551724,5.68963396 L25.6551724,10.034504 C25.6551724,10.4341981 26.0259447,10.7586207 26.4827425,10.7586207 Z M27.3103125,6.41375067 L28.9655496,6.41375067 L28.9655496,9.3103024 L27.3103125,9.3103024 L27.3103125,6.41375067 Z" id="Shape"></path>
                <path d="M25.6551724,29.0689867 C25.6551724,29.4686808 26.0259447,29.7931034 26.4827425,29.7931034 L29.7931196,29.7931034 C30.2499173,29.7931034 30.6206897,29.4686808 30.6206897,29.0689867 L30.6206897,24.7241167 C30.6206897,24.3244226 30.2499173,24 29.7931196,24 L26.4827425,24 C26.0259447,24 25.6551724,24.3244226 25.6551724,24.7241167 L25.6551724,29.0689867 Z M27.3103125,25.4483183 L28.9655496,25.4483183 L28.9655496,28.34487 L27.3103125,28.34487 L27.3103125,25.4483183 Z" id="Shape"></path>
                <path d="M19.0344666,10.7586207 L22.3448438,10.7586207 C22.8016415,10.7586207 23.1724138,10.4341981 23.1724138,10.034504 L23.1724138,5.68963396 C23.1724138,5.28993986 22.8016415,4.96551724 22.3448438,4.96551724 L19.0344666,4.96551724 C18.5776689,4.96551724 18.2068966,5.28993986 18.2068966,5.68963396 L18.2068966,10.034504 C18.2067996,10.4341981 18.5775719,10.7586207 19.0344666,10.7586207 Z M19.8620366,6.41375067 L21.5172737,6.41375067 L21.5172737,9.3103024 L19.8620366,9.3103024 L19.8620366,6.41375067 Z" id="Shape"></path>
                <path d="M23.4124274,38.3000934 C23.2634735,38.4582772 23.1724138,38.6748163 23.1724138,38.8913554 C23.1724138,39.1078945 23.2634735,39.3243359 23.4124274,39.4826173 C23.5696241,39.6325065 23.7848121,39.7241379 24,39.7241379 C24.2151879,39.7241379 24.4302789,39.6325065 24.5875726,39.4826173 C24.7365265,39.3244335 24.8275862,39.1078945 24.8275862,38.8913554 C24.8275862,38.6748163 24.7365265,38.4583748 24.5875726,38.3000934 C24.2730821,37.9919229 23.7269179,37.9919229 23.4124274,38.3000934 Z" id="Shape"></path>
                <path d="M18.2068966,29.0689867 C18.2068966,29.4686808 18.5776616,29.7931034 19.0344504,29.7931034 L22.3448599,29.7931034 C22.8016487,29.7931034 23.1724138,29.4686808 23.1724138,29.0689867 L23.1724138,24.7241167 C23.1724138,24.3244226 22.8016487,24 22.3448599,24 L19.0345474,24 C18.5777586,24 18.2069935,24.3244226 18.2069935,24.7241167 L18.2069935,29.0689867 L18.2068966,29.0689867 Z M19.8621013,25.4483183 L21.517306,25.4483183 L21.517306,28.34487 L19.8621013,28.34487 L19.8621013,25.4483183 Z" id="Shape"></path>
                <path d="M15.7241379,34.7585964 C15.7241379,35.2153897 16.0763682,35.5861584 16.5103218,35.5861584 L18.8689655,35.5861584 L18.8689655,43.034507 C18.8689655,43.4913003 19.2211958,43.862069 19.6551494,43.862069 C20.089103,43.862069 20.4413332,43.4913003 20.4413332,43.034507 L20.4413332,35.5861584 L26.7310806,35.5861584 L26.7310806,43.034507 C26.7310806,43.4913003 27.0833108,43.862069 27.5172644,43.862069 C27.951218,43.862069 28.3034483,43.4913003 28.3034483,43.034507 L28.3034483,35.5861584 L30.662092,35.5861584 C31.0960456,35.5861584 31.4482759,35.2153897 31.4482759,34.7585964 C31.4482759,34.3018032 31.0960456,33.9310345 30.662092,33.9310345 L16.5103218,33.9310345 C16.0763682,33.9310345 15.7241379,34.3018032 15.7241379,34.7585964 Z" id="Shape"></path>
                <path d="M38.0689655,29.0689867 C38.0689655,29.4686808 38.4397378,29.7931034 38.8965356,29.7931034 L42.2069127,29.7931034 C42.6637104,29.7931034 43.0344828,29.4686808 43.0344828,29.0689867 L43.0344828,24.7241167 C43.0344828,24.3244226 42.6637104,24 42.2069127,24 L38.8965356,24 C38.4397378,24 38.0689655,24.3244226 38.0689655,24.7241167 L38.0689655,29.0689867 Z M39.7242026,25.4483183 L41.3794397,25.4483183 L41.3794397,28.34487 L39.7242026,28.34487 L39.7242026,25.4483183 Z" id="Shape"></path>
                <path d="M34.788204,0 L14.0393821,0 C13.5989048,0 13.2413793,0.357033821 13.2413793,0.796905465 L13.2413793,42.2375773 C13.2413793,42.6774489 13.5989048,43.0344828 14.0393821,43.0344828 C14.4798595,43.0344828 14.837385,42.6774489 14.837385,42.2375773 L14.837385,1.59381093 L33.9902012,1.59381093 L33.9902012,42.2375773 C33.9902012,42.6774489 34.3477267,43.0344828 34.788204,43.0344828 C35.2286814,43.0344828 35.5862069,42.6774489 35.5862069,42.2375773 L35.5862069,0.796905465 C35.5863004,0.357033821 35.2287749,0 34.788204,0 Z" id="Shape"></path>
            </g>
        </g>
    </g>
</svg>