<?xml version="1.0" encoding="UTF-8"?>
<svg width="34px" height="34px" viewBox="0 0 34 34" version="1.1" xmlns="http://www.w3.org/2000/svg" xmlns:xlink="http://www.w3.org/1999/xlink">
    <!-- Generator: Sketch 46.2 (44496) - http://www.bohemiancoding.com/sketch -->
    <title>whatsapp-logo (1)</title>
    <desc>Created with Sketch.</desc>
    <defs></defs>
    <g id="Page-2" stroke="none" stroke-width="1" fill="none" fill-rule="evenodd">
        <g id="Artboard-Copy-15" transform="translate(-508.000000, -2881.000000)" fill-rule="nonzero" fill="#FFFFFF">
            <g id="Group-27" transform="translate(268.000000, 2868.000000)">
                <g id="Group-25" transform="translate(240.000000, 12.000000)">
                    <g id="whatsapp-logo-(1)" transform="translate(0.000000, 1.000000)">
                        <path d="M34,16.5621556 C34,25.7092889 26.5279333,33.1243111 17.3090222,33.1243111 C14.3823778,33.1243111 11.6329111,32.3763111 9.24082222,31.0635333 L0,34 L3.01277778,25.1139111 C1.49297778,22.6183111 0.617666667,19.6912889 0.617666667,16.5621556 C0.617666667,7.41502222 8.09048889,0 17.3090222,0 C26.5286889,0 34,7.41502222 34,16.5621556 Z M17.3090222,2.63764444 C9.57062222,2.63764444 3.27608889,8.8842 3.27608889,16.5621556 C3.27608889,19.6089333 4.26926667,22.4305556 5.94924444,24.7259333 L4.19597778,29.8973333 L9.58875556,28.1833556 C11.8044222,29.6381778 14.4586889,30.4866667 17.3094,30.4866667 C25.0466667,30.4866667 31.3423333,24.2408667 31.3423333,16.5629111 C31.3423333,8.88495556 25.0470444,2.63764444 17.3090222,2.63764444 Z M25.7376222,20.3765778 C25.6344889,20.2077111 25.3621111,20.1057111 24.9533556,19.9028444 C24.5438444,19.6999778 22.5318,18.7173778 22.1578,18.5825111 C21.7826667,18.4472667 21.5091556,18.3792667 21.2367778,18.7853778 C20.9644,19.1918667 20.1801333,20.1057111 19.941,20.3765778 C19.7022444,20.6482 19.4638667,20.6822 19.0543556,20.4789556 C18.6456,20.2760889 17.3275333,19.8469333 15.7646667,18.4642667 C14.5486,17.3883556 13.7273111,16.0600889 13.4885556,15.6532222 C13.2501778,15.2471111 13.4636222,15.0276222 13.668,14.8255111 C13.8523556,14.6434222 14.0775111,14.3514 14.2818889,14.1145333 C14.4870222,13.8772889 14.5550222,13.7084222 14.6906444,13.4371778 C14.8277778,13.1663111 14.7594,12.9294444 14.6566444,12.7258222 C14.5546444,12.5229556 13.7356222,10.5252667 13.3948667,9.71228889 C13.0541111,8.90006667 12.7137333,9.03531111 12.4746,9.03531111 C12.2362222,9.03531111 11.9630889,9.00131111 11.6903333,9.00131111 C11.4175778,9.00131111 10.9740667,9.10293333 10.5989333,9.50904444 C10.2241778,9.91553333 9.16753333,10.8977556 9.16753333,12.8950667 C9.16753333,14.8927556 10.6329333,16.8228222 10.8380667,17.0933111 C11.0424444,17.3638 13.6676222,21.5964222 17.8269556,23.222 C21.9866667,24.8468222 21.9866667,24.3047111 22.7369333,24.2367111 C23.4864444,24.1690889 25.1569778,23.2548667 25.4992444,22.3074 C25.8392444,21.3584222 25.8392444,20.5458222 25.7376222,20.3765778 Z" id="WhatsApp"></path>
                    </g>
                </g>
            </g>
        </g>
    </g>
</svg>