<?xml version="1.0" encoding="UTF-8"?>
<svg width="26px" height="32px" viewBox="0 0 26 32" version="1.1" xmlns="http://www.w3.org/2000/svg" xmlns:xlink="http://www.w3.org/1999/xlink">
    <!-- Generator: Sketch 46.2 (44496) - http://www.bohemiancoding.com/sketch -->
    <title>youtube-logo</title>
    <desc>Created with Sketch.</desc>
    <defs></defs>
    <g id="Page-2" stroke="none" stroke-width="1" fill="none" fill-rule="evenodd">
        <g id="Artboard-Copy-15" transform="translate(-1126.000000, -3098.000000)" fill-rule="nonzero" fill="#FFFFFF">
            <g id="Group-6" transform="translate(1066.000000, 3053.000000)">
                <g id="Group-3" transform="translate(7.000000, 45.000000)">
                    <g id="youtube-logo" transform="translate(53.000000, 0.000000)">
                        <path d="M25.5066132,16.2683108 C25.3550896,15.577091 25.0191745,14.9974336 24.4999717,14.5290927 C23.9803396,14.0607517 23.3822783,13.7854452 22.7051132,13.7034194 C20.5576604,13.4692181 17.3188821,13.3521791 12.9884104,13.3521791 C8.65806132,13.3521791 5.42504717,13.4692797 3.28906132,13.7034194 C2.60061321,13.7854452 1.99954717,14.0607517 1.48580189,14.5290927 C0.972179245,14.9976182 0.633688679,15.5773371 0.470207547,16.2683108 C0.166792453,17.6271827 0.0150235849,19.6767821 0.0150235849,22.4175398 C0.0150235849,25.2050024 0.166792453,27.2547864 0.470207547,28.5667073 C0.622160377,29.2574348 0.957768868,29.8375845 1.47715566,30.3057408 C1.99654245,30.7742664 2.59472642,31.043604 3.27158491,31.1139382 C5.41940566,31.3598926 8.65842925,31.4829006 12.988533,31.4829006 C17.3183302,31.4829006 20.557967,31.3598926 22.7049906,31.1139382 C23.3821557,31.043604 23.9772736,30.7742664 24.4910189,30.3057408 C25.0047028,29.837646 25.3431934,29.2574348 25.5064906,28.5667073 C25.8099057,27.2078354 25.9618585,25.158236 25.9618585,22.4175398 C25.9617972,19.6300157 25.8098443,17.5801701 25.5066132,16.2683108 Z M7.42134434,18.043096 L5.5480566,18.043096 L5.5480566,28.039416 L3.79741038,28.039416 L3.79741038,18.043096 L1.95901415,18.043096 L1.95901415,16.391688 L7.42140566,16.391688 L7.42140566,18.043096 L7.42134434,18.043096 Z M12.1482547,28.039416 L10.5900943,28.039416 L10.5900943,27.0904887 C9.95983962,27.8052148 9.36435377,28.1623625 8.80412736,28.1623625 C8.26732547,28.1623625 7.92877358,27.945514 7.78890094,27.5123094 C7.69563208,27.2312186 7.6487217,26.8034906 7.6487217,26.2296791 L7.6487217,19.3604935 L9.20688208,19.3604935 L9.20688208,25.7554307 C9.20688208,26.1300543 9.21276887,26.3351496 9.22454245,26.3703475 C9.2595566,26.6163019 9.38201415,26.7392483 9.5922217,26.7392483 C9.90728774,26.7392483 10.2401368,26.4932939 10.5901557,26.0013851 L10.5901557,19.3604935 L12.148316,19.3604935 L12.148316,28.039416 L12.1482547,28.039416 Z M18.1008443,25.4391421 C18.1008443,26.2941059 18.0484151,26.8801014 17.9438632,27.1964515 C17.7449387,27.840228 17.3309009,28.1623625 16.7007075,28.1623625 C16.1404198,28.1623625 15.5977925,27.840228 15.0722736,27.1964515 L15.0722736,28.0396006 L13.5143585,28.0396006 L13.5143585,16.391688 L15.0722736,16.391688 L15.0722736,20.2040734 C15.5744292,19.5719269 16.116934,19.2556383 16.7007075,19.2556383 C17.3309009,19.2556383 17.7449387,19.58368 17.9438632,20.2394558 C18.0483538,20.5439298 18.1008443,21.1236486 18.1008443,21.978674 L18.1008443,25.4391421 Z M24.0184198,23.9987367 L20.884684,23.9987367 L20.884684,25.5271984 C20.884684,26.3353958 21.1529009,26.7392483 21.6898868,26.7392483 C22.0749198,26.7392483 22.3085519,26.5286764 22.3901698,26.1066711 C22.4132264,25.989632 22.425184,25.6324843 22.425184,25.035228 L24.0183585,25.035228 L24.0183585,25.263522 C24.0183585,25.8375796 24.0064009,26.1770668 23.983283,26.282722 C23.9485142,26.5985799 23.8263019,26.9148685 23.6156651,27.2311571 C23.1954953,27.8519812 22.5646887,28.1623625 21.7244717,28.1623625 C20.9195142,28.1623625 20.2891368,27.8636112 19.8337689,27.2665396 C19.4954623,26.8331503 19.3263396,26.1538067 19.3263396,25.2285087 L19.3263396,22.1889382 C19.3263396,21.2637017 19.4895755,20.5843581 19.8161085,20.1509689 C20.2715377,19.5537741 20.895967,19.255146 21.6898868,19.255146 C22.472033,19.255146 23.091066,19.5537741 23.5456368,20.1509689 C23.8611934,20.5843581 24.0184198,21.2637017 24.0184198,22.1889382 L24.0184198,23.9987367 L24.0184198,23.9987367 Z" id="Shape"></path>
                        <path d="M15.8596321,20.6783217 C15.5910472,20.6783217 15.328717,20.8076062 15.0718443,21.0649445 L15.0718443,26.3528716 C15.3286557,26.6104561 15.5910472,26.7392483 15.8596321,26.7392483 C16.3145708,26.7392483 16.5427453,26.3471489 16.5427453,25.5620886 L16.5427453,21.8554814 C16.542684,21.0706057 16.3150613,20.6783217 15.8596321,20.6783217 Z" id="Shape"></path>
                        <path d="M21.6724717,20.6783217 C21.1472594,20.6783217 20.884684,21.0767592 20.884684,21.8727111 L20.884684,22.6809085 L22.4601981,22.6809085 L22.4601981,21.8727111 C22.4601981,21.0763284 22.1975,20.6783217 21.6724717,20.6783217 Z" id="Shape"></path>
                        <path d="M6.40636321,7.00985401 L6.40636321,11.7711052 L8.15700943,11.7711052 L8.15700943,7.00985401 L10.2750896,0 L8.48936792,0 L7.29913208,4.62058277 L6.05597642,0 L4.20028774,0 C4.52712736,0.983940637 4.90645755,2.0789515 5.33833962,3.28540179 C5.88697642,4.90161197 6.24275943,6.14332167 6.40636321,7.00985401 Z" id="Shape"></path>
                        <path d="M12.6210377,11.8941132 C13.4264245,11.8941132 14.0448443,11.5954235 14.4767264,10.9981057 C14.8036887,10.5647165 14.9669245,9.87361969 14.9669245,8.92506153 L14.9669245,5.85041626 C14.9669245,4.91354971 14.8032594,4.22817568 14.4767264,3.79478644 C14.0448443,3.19746863 13.4264245,2.89877896 12.6210377,2.89877896 C11.8388302,2.89877896 11.2259906,3.19746863 10.7826415,3.79478644 C10.4559858,4.22817568 10.292566,4.91354971 10.292566,5.85041626 L10.292566,8.925 C10.292566,9.86186655 10.4558019,10.5530249 10.7826415,10.9980442 C11.2261745,11.5954235 11.8387689,11.8941132 12.6210377,11.8941132 Z M11.8680802,5.53412765 C11.8680802,4.72593026 12.119066,4.32183156 12.6210377,4.32183156 C13.1230094,4.32183156 13.37375,4.72593026 13.37375,5.53412765 L13.37375,9.22344353 C13.37375,10.0435787 13.1230094,10.4532155 12.6210377,10.4532155 C12.119066,10.4532155 11.8680802,10.0433325 11.8680802,9.22344353 L11.8680802,5.53412765 L11.8680802,5.53412765 Z" id="Shape"></path>
                        <path d="M17.4352075,11.8941132 C18.0191651,11.8941132 18.6204151,11.5309966 19.2388349,10.8046404 L19.2388349,11.7709206 L20.8320094,11.7709206 L20.8320094,3.00424952 L19.2388349,3.00424952 L19.2388349,9.69781491 C18.8885708,10.2015384 18.5561509,10.453154 18.2405943,10.453154 C18.0303255,10.453154 17.9077453,10.3243617 17.8729151,10.0667157 C17.8612028,10.043271 17.855316,9.83811414 17.855316,9.45173745 L17.855316,3.00424952 L16.2621415,3.00424952 L16.2621415,9.92641651 C16.2621415,10.5236112 16.3091745,10.9626617 16.4023208,11.243937 C16.5542123,11.6773263 16.8984057,11.8941132 17.4352075,11.8941132 Z" id="Shape"></path>
                    </g>
                </g>
            </g>
        </g>
    </g>
</svg>